<?xml version="1.0" encoding="UTF-8" standalone="no"?>
<!-- Created with Inkscape (http://www.inkscape.org/) -->

<svg
   xmlns:dc="http://purl.org/dc/elements/1.1/"
   xmlns:cc="http://creativecommons.org/ns#"
   xmlns:rdf="http://www.w3.org/1999/02/22-rdf-syntax-ns#"
   xmlns:svg="http://www.w3.org/2000/svg"
   xmlns="http://www.w3.org/2000/svg"
   xmlns:xlink="http://www.w3.org/1999/xlink"
   xmlns:sodipodi="http://sodipodi.sourceforge.net/DTD/sodipodi-0.dtd"
   xmlns:inkscape="http://www.inkscape.org/namespaces/inkscape"
   width="1052.3622"
   height="744.09448"
   id="svg2"
   version="1.1"
   inkscape:version="0.47pre4 r22446"
   sodipodi:docname="wombat.svg">
  <defs
     id="defs4">
    <inkscape:perspective
       sodipodi:type="inkscape:persp3d"
       inkscape:vp_x="0 : 526.18109 : 1"
       inkscape:vp_y="0 : 1000 : 0"
       inkscape:vp_z="744.09448 : 526.18109 : 1"
       inkscape:persp3d-origin="372.04724 : 350.78739 : 1"
       id="perspective10" />
    <inkscape:perspective
       id="perspective2884"
       inkscape:persp3d-origin="0.5 : 0.33333333 : 1"
       inkscape:vp_z="1 : 0.5 : 1"
       inkscape:vp_y="0 : 1000 : 0"
       inkscape:vp_x="0 : 0.5 : 1"
       sodipodi:type="inkscape:persp3d" />
  </defs>
  <sodipodi:namedview
     id="base"
     pagecolor="#ffffff"
     bordercolor="#666666"
     borderopacity="1.0"
     inkscape:pageopacity="0.0"
     inkscape:pageshadow="2"
     inkscape:zoom="0.49497475"
     inkscape:cx="460.25513"
     inkscape:cy="376.03475"
     inkscape:document-units="px"
     inkscape:current-layer="layer1"
     showgrid="false"
     inkscape:snap-bbox="false"
     inkscape:object-nodes="false"
     inkscape:snap-global="true"
     inkscape:window-width="1440"
     inkscape:window-height="826"
     inkscape:window-x="0"
     inkscape:window-y="25"
     inkscape:window-maximized="1" />
  <metadata
     id="metadata7">
    <rdf:RDF>
      <cc:Work
         rdf:about="">
        <dc:format>image/svg+xml</dc:format>
        <dc:type
           rdf:resource="http://purl.org/dc/dcmitype/StillImage" />
      </cc:Work>
    </rdf:RDF>
  </metadata>
  <g
     inkscape:label="Layer 1"
     inkscape:groupmode="layer"
     id="layer1"
     transform="translate(0,-308.2677)"
     style="display:inline">
    <path
       style="fill:#cc8557;fill-opacity:1;stroke:#000000;stroke-width:1px;stroke-linecap:butt;stroke-linejoin:miter;stroke-opacity:1"
       d="m 334.28572,576.95163 c 0,0 -15.7143,39.99999 -87.14287,32.85714 -29.79177,-2.97918 -53.57475,-37.54995 -68.58381,-77.8521 -10.8664,-29.17834 -19.90513,-59.3778 -25.27583,-82.79609 -15.10234,-50.65779 3.60192,-69.03348 25.5463,-118.51867 24.6704,-53.56377 59.29679,-113.54597 98.31335,-123.69028 l 101.26088,-26.46358 c 26.55496,-3.28413 47.71386,-0.71849 55.84627,1.03242 50.38978,10.84895 119.46391,37.71215 120.0357,21.14544 l 3.39286,-98.30357 c -0.47619,-18.571429 -8.09524,-41.241064 1.42857,-60 14.27298,8.834988 20.99844,28.568606 31.60715,44.732142 l 16.42857,35.714288 26.42857,25.71428 32.14286,11.42857 27.14285,-29.28571 L 694.3791,78.382814 695,56.237339 c 0.25136,-8.96524 11.43511,1.411415 20.34367,4.238545 8.90856,2.827129 18.22776,17.190026 18.22776,17.190026 l 2.85714,55.71429 5.71429,37.85714 13.57143,29.28571 40.71428,20.71429 L 815,238.3802 l 10,32.14285 21.42857,37.85715 17.85714,18.57142 10.00001,15 8.57142,27.14286 L 875,388.3802 l -15.71428,20.71428 -20,20 -32.14286,7.14286 -24.87354,-1.6033 -25.12646,9.46044 -44.28572,-2.14286 -20,-15.71428 -2.27343,50.23331 -9.15514,48.33812 27.14286,22.85714 5,15 -19.99463,16.43676 -23.5768,12.13467 -36.42624,-23.68072 -22.72361,-21.42671 -7.45895,-25.57662 8.75166,-87.88738 -24.34489,20.5349 -12.84006,20.17094 -0.6722,47.1513 45,77.85715 c 0,0 21.42858,17.14285 18.57143,17.14285 -2.85714,0 28.57143,10.71429 28.57143,10.71429 l -16.80978,20.45443 -23.59921,15.7585 -31.73387,13.07278 -85.71428,-63.57142 -65.71429,-48.57143 -10.71428,-35.71429 -11.42857,-27.14286 -12.85715,-12.14285 -18.18275,-19.72517 -18.99855,-12.2654 -20.82813,-15.78607 -19.13342,4.20521 -5.71429,20.71428 11.42857,35 -5,48.57143 2.85715,27.85715 z"
       id="path2906"
       transform="translate(0,308.2677)"
       sodipodi:nodetypes="csscccsssccccccccszcccccccccccccccccccccccccccccccccsccccccccccccccccc" />
    <path
       style="fill:#40322a;fill-opacity:1;stroke:#000000;stroke-width:1px;stroke-linecap:butt;stroke-linejoin:miter;stroke-opacity:1"
       d="m 656.42857,414.45162 -30.71428,-31.42857 -9.28572,-12.85714 -6.07143,-16.78571 -8.21428,-34.28572 0,-20.71428 -8.57143,-16.42858 -14.28572,-6.42857 -8.57142,1.42857 -1.42858,22.14286 0,12.14286 2.14286,23.57143 2.85714,23.57143 5,17.85714 17.14286,17.14286 20,9.28571 40,11.78571 z"
       id="path2934"
       transform="translate(0,308.2677)" />
    <path
       style="fill:#d16c67;fill-opacity:1;stroke:#000000;stroke-width:1px;stroke-linecap:butt;stroke-linejoin:miter;stroke-opacity:1"
       d="m 595.04115,123.94129 7.28028,32.83176 -0.89286,28.75 -5,25 -8.57143,8.57143 -20.71428,-6.42857 -9.28572,-12.85714 3.57143,-91.42857 -3.57143,-52.857147 37.18401,68.418237 z"
       id="path2912"
       transform="translate(0,308.2677)"
       sodipodi:nodetypes="cccccccccc" />
    <path
       style="fill:#7c4722;fill-opacity:1;stroke:#000000;stroke-width:1px;stroke-linecap:butt;stroke-linejoin:miter;stroke-opacity:1"
       d="m 813.57143,419.80877 -17.14286,-12.85715 0,-30 7.14286,-20 L 825,345.52305 l 22.14286,-7.14285 12.85714,0 10,14.28571 1.42857,22.14286 -6.42857,15.71428 -15.71428,15.71429 -17.14286,10.71428 -18.57143,2.85715 z"
       id="path2914"
       transform="translate(0,308.2677)" />
    <path
       style="fill:#d19367;fill-opacity:1;stroke:#000000;stroke-width:1px;stroke-linecap:butt;stroke-linejoin:miter;stroke-opacity:1"
       d="m 770.71429,261.23734 38.57143,25.71428 19.28571,11.42858 11.42857,15.71428 15,15 -20,7.14286 -17.14286,5.71428 -7.85714,4.28572 -20.71428,-7.85714 -16.42858,-12.85715 -11.42857,-8.57143 4.28572,-13.57142 -2.14286,-15.71429 -2.14286,-12.85714 -3.57143,-12.85715 12.85715,-0.71428 z"
       id="path2916"
       transform="translate(0,308.2677)" />
    <path
       style="fill:#000000;fill-opacity:1;stroke:#000000;stroke-width:1px;stroke-linecap:butt;stroke-linejoin:miter;stroke-opacity:1"
       d="m 845.71429,372.66591 -10,4.28571 -2.14286,10 10,5.71429 5.71429,-1.42857 4.28571,-6.42857 -7.85714,-12.14286 z"
       id="path2918"
       transform="translate(0,308.2677)" />
    <path
       style="fill:#000000;fill-opacity:1;stroke:#000000;stroke-width:1px;stroke-linecap:butt;stroke-linejoin:miter;stroke-opacity:1"
       d="m 860,349.45162 -6.07142,4.64286 1.07142,7.85715 5.71428,-1e-5 3.92858,-1.78571 1.78571,-3.92857 L 860,349.45162 z"
       id="path2920"
       transform="translate(0,308.2677)"
       sodipodi:nodetypes="ccccccc" />
    <path
       style="fill:#d19367;fill-opacity:1;stroke:#000000;stroke-width:1px;stroke-linecap:butt;stroke-linejoin:miter;stroke-opacity:1"
       d="m 752.14286,281.95162 -16.42857,-8.57142 -16.42857,4.28571 -10,4.28571 -10.71429,7.14286 -5,11.42857 12.85714,12.14286 20.71429,2.14286 12.14286,2.14285 12.14285,10.71429 3.57143,14.28571 -10,10.71429 -10.71428,10 -10.71429,15.71429 7.85714,15 14.28572,17.85714 12.14285,12.14286 12.85715,7.85714 40.71428,-5 L 795,414.80877 l -9.28571,-15 6.42857,-37.85715 5,-13.57142 -23.57143,-15 -16.42857,-13.57143 0,-13.57143 2.85714,-9.28572 -7.85714,-15 z"
       id="path2930"
       transform="translate(0,308.2677)" />
    <path
       style="fill:#000000;fill-opacity:1;stroke:#000000;stroke-width:1px;stroke-linecap:butt;stroke-linejoin:miter;stroke-opacity:1"
       d="m 719.64286,292.30877 9.28571,-6.07143 8.57143,-2.14286 6.07143,1.07143 3.21429,3.57143 3.57142,3.21428 2.14286,5.71429 -5.35714,3.21429 -7.85714,1.78571 -9.64286,2.14286 -8.21429,-0.71429 -1.78571,-5.35714 0,-6.42857 z"
       id="path2928"
       transform="translate(0,308.2677)" />
    <path
       style="fill:none;stroke:#000000;stroke-width:1px;stroke-linecap:butt;stroke-linejoin:miter;stroke-opacity:1"
       d="m 614.28571,279.09448 6.42858,26.42857 2.14285,20 14.28572,25 14.28571,16.42857 17.14286,21.42858 14.28571,19.28571 -2.85714,7.14286 -14.28571,-7.85715 -12.14286,-21.42857 -12.14286,-13.57143 -9.28571,-15 -14.64286,-27.67857 -0.53571,-12.14285 -3.03572,-16.42858 0.35714,-21.60714 z"
       id="path2932"
       transform="translate(0,308.2677)" />
    <path
       style="fill:#40322a;fill-opacity:1;stroke:#000000;stroke-width:1px;stroke-linecap:butt;stroke-linejoin:miter;stroke-opacity:1"
       d="m 292.85714,291.95162 10,2.85715 -17.14286,15.71429 3.03985,18.01828 23.38873,24.83886 12.14285,20.71428 -5,19.28572 -7.14285,23.57142 0,19.28572 L 305,449.09448 292.85714,451.95162 286.42857,439.09448 275,415.52305 l -8.57143,-23.57143 -5,-21.42857 c 0,0 -9.28572,-50 -7.85714,-52.85714 1.42857,-2.85714 17.14285,-18.57143 17.14285,-18.57143 l 22.14286,-7.14286 z"
       id="path2936"
       transform="translate(0,308.2677)"
       sodipodi:nodetypes="cccccccccccccccscc" />
    <path
       style="fill:none;stroke:#000000;stroke-width:1px;stroke-linecap:butt;stroke-linejoin:miter;stroke-opacity:1"
       d="m 311.42857,244.80877 -9.28571,6.42857 L 305,262.66591 317.85714,269.09448 330,264.80877 348.57143,265.52305 365,264.09448 l -3.57143,-14.28571 -7.14286,-10.71429 7.14286,-5.71428 12.14286,-5 4.28571,-11.42858 1.42857,-10.71428 -10.71428,-5 L 355,199.80877 c 0,0 -13.57143,2.85714 -12.85714,6.42857 0.71428,3.57143 0,12.85714 0,12.85714 l -7.85715,13.57143 -12.85714,8.57143 -10,3.57143 z"
       id="path2938"
       transform="translate(0,308.2677)" />
    <path
       style="fill:#40322a;fill-opacity:1;stroke:#000000;stroke-width:1px;stroke-linecap:butt;stroke-linejoin:miter;stroke-opacity:1"
       d="m 447.85714,189.09448 -18.57143,26.42857 1.42858,16.42857 4.28571,19.28572 1.42857,19.28571 4.28572,17.85715 10,7.85714 13.57142,5.71428 3.57143,12.85715 8.57143,10 25.71429,-2.85715 15.71428,-5 8.57143,-16.42857 -10,-12.85714 7.14286,-7.85714 15,-13.57143 10.71428,-12.14286 8.57143,-5.71428 L 550,227.66591 540.71429,216.23734 447.85714,189.09448 z"
       id="path2940"
       transform="translate(0,308.2677)" />
    <path
       style="fill:#40322a;fill-opacity:1;stroke:#000000;stroke-width:1px;stroke-linecap:butt;stroke-linejoin:miter;stroke-opacity:1"
       d="m 576.42857,465.8802 -15.35714,-3.21429 -10,-6.07143 -8.57143,-7.5 -7.14286,-10 2.85715,-3.92857 8.21428,6.07143 8.92857,6.07143 10,6.07143 10.35715,5 5,2.5 -4.28572,5 z"
       id="path2942"
       transform="translate(0,308.2677)" />
    <path
       style="fill:#40322a;fill-opacity:1;stroke:#000000;stroke-width:1px;stroke-linecap:butt;stroke-linejoin:miter;stroke-opacity:1"
       d="m 551.07143,432.30877 15.71429,11.07143 9.64285,4.64285 8.57143,3.92857 8.57143,-6.78571 -9.64286,-7.14286 -13.21428,-5.35714 -13.21429,-1.42857 -6.42857,1.07143 z"
       id="path2944"
       transform="translate(0,308.2677)" />
    <path
       style="fill:#6e3b1a;fill-opacity:1;stroke:#000000;stroke-width:1px;stroke-linecap:butt;stroke-linejoin:miter;stroke-opacity:1"
       d="m 210,302.66591 c 0,0 20,50 21.42857,57.14286 1.42857,7.14286 2.85714,34.28571 2.85714,34.28571 l -31.42857,-25.71428 -17.14285,4.28571 -5.71429,30 30,28.57143 25.71429,21.42857 14.28571,38.57143 -20,28.57143 -17.14286,22.85714 24.28572,20 32.85714,-2.85714 22.85714,-41.42857 4.28572,-48.57143 -15.71429,-15.71429 -27.14286,-71.42857 -5.71428,-35.71428 -7.14286,-44.28572 32.85714,-17.14286 30,-2.85714 5.71429,20 0,27.14286 11.42857,18.57143 10,25.71428 -12.85714,45.71429 -1.42857,25.71428 15.71428,-30 18.57143,-4.28571 27.14286,1.42857 27.14286,8.57143 21.42857,18.57143 -7.14286,17.14286 -4.28571,10 7.14285,17.14285 17.14286,27.14286 10,24.28571 18.57143,25.71429 77.14286,37.14286 37.14285,-7.14286 -21.42857,-41.42857 -20,-41.42857 5.71429,-20 -11.42857,-22.85715 -7.14286,-16.78571 -1.42857,-10.71429 5.35714,-5.71428 12.5,3.92857 11.78572,7.85714 22.85714,13.57143 2.85714,-2.85714 -32.85714,-22.5 -2.85714,-6.42857 33.92857,0.35714 14.28571,13.57143 -2.85714,-35 L 574.28571,385.52305 560,361.23734 l -2.14286,-27.85714 2.85715,-35 -15,-16.42858 -12.14286,0.71429 -3.57143,18.57143 -1.42857,14.28571 -6.42857,11.42857 -47.14286,4.28572 -17.85714,-5 0,-17.85714 -15,-8.57143 L 429.28571,278.3802 425,242.66591 420.71429,221.23734 425,204.80877 435,190.52305 c 0,0 -40,-3.57143 -42.85714,-6.42857 C 389.28571,181.23734 345,195.52305 345,195.52305 l -60,19.28572 -27.14286,13.57143 -21.42857,19.28571 -17.14286,22.14286 L 210,302.66591 z"
       id="path2946"
       transform="translate(0,308.2677)" />
    <path
       style="fill:#d19367;fill-opacity:1;stroke:#000000;stroke-width:1px;stroke-linecap:butt;stroke-linejoin:miter;stroke-opacity:1"
       d="m 674.28571,191.23734 -35,54.28571 -13.57142,17.85715 -16.42858,10.71428 -12.14285,7.14286 10,25.71428 2.14285,14.28572 4.28572,24.28571 L 625,368.3802 l 10,13.57142 12.85714,18.57143 14.28572,14.28572 12.85714,9.28571 10,-0.71428 7.14286,-3.57143 15,10 -20,-40.71429 24.28571,-17.85714 12.85715,-9.28572 22.85714,-20 -5.71429,-16.42857 -20,-5 -25.71428,-7.85714 -15,-12.85714 7.14285,-16.42857 26.42858,-14.28572 14.28571,-5.71428 12.85714,-6.42858 16.42857,-8.57142 34.28572,22.14285 26.42857,14.28572 7.85714,5 -16.42857,-30 -14.28571,-26.42857 -36.42857,-20.71429 -27.85715,-20 -9.28571,-27.85714 -14.28572,-12.14286 -33.57143,38.57143 z"
       id="path2948"
       transform="translate(0,308.2677)" />
    <path
       style="fill:#d19367;fill-opacity:1;stroke:#000000;stroke-width:1px;stroke-linecap:butt;stroke-linejoin:miter;stroke-opacity:1"
       d="m 655.589,627.42186 -19.69797,1.01016 -10.10153,-2.02031 -9.09137,-1.51523 -12.62691,9.59645 -8.08122,5.05076 -7.07107,4.04061 -2.52538,10.10153 1.01016,8.5863 2.0203,5.55584 8.08122,3.53553 25.25381,-10.6066 9.59645,-6.06092 8.08122,-6.06091 8.5863,-4.54569 3.03046,-5.55584 3.53553,-11.11168 z"
       id="path3732"
       transform="translate(0,308.2677)" />
    <path
       style="fill:#000000;fill-opacity:1;stroke:#000000;stroke-width:1px;stroke-linecap:butt;stroke-linejoin:miter;stroke-opacity:1"
       d="M 621.42857,657.66591 590,641.23734 l 4.28571,-3.57143 27.14286,20 z"
       id="path2950"
       transform="translate(0,308.2677)" />
    <path
       style="fill:#000000;fill-opacity:1;stroke:#000000;stroke-width:1px;stroke-linecap:butt;stroke-linejoin:miter;stroke-opacity:1"
       d="m 642.85714,949.50504 -25.71429,-17.14286 -4.28571,4.28571 30,12.85715 z"
       id="path2952" />
    <path
       style="fill:#32271d;fill-opacity:1;stroke:#000000;stroke-width:1px;stroke-linecap:butt;stroke-linejoin:miter;stroke-opacity:1;display:inline"
       d="m 609.62706,285.9903 5.05076,18.18275 5.05077,14.64721 -1.51523,11.61675 5.05076,16.66752 7.07107,13.63706 10.6066,15.65737 10.10153,15.15228 13.13198,9.59645 16.16244,15.65737 4.04061,-1.01015 -1.01015,-13.63706 -6.06092,-9.59645 -12.12183,-11.61676 -18.68782,-21.71828 -11.11168,-19.1929 -3.53553,-16.16244 -5.05077,-14.14213 -17.17259,-23.73859 z"
       id="path3729"
       transform="translate(0,308.2677)" />
    <path
       style="fill:#392b22;fill-opacity:1;stroke:#000000;stroke-width:1px;stroke-linecap:butt;stroke-linejoin:miter;stroke-opacity:1"
       d="m 325.71429,236.23734 -14.64286,9.64286 -10.35714,5.71428 0.35714,11.42857 7.5,6.42857 12.85714,1.78572 6.07143,-4.28572 16.07143,-2.5 13.21428,0.35715 5.71429,-8.57143 0.35714,-11.42857 -7.14285,-7.85715 -0.35715,-6.78571 8.92857,-1.42857 9.64286,-3.92857 3.21429,-6.78572 1.42857,-9.28571 -7.14286,-7.5 -8.92857,-2.85714 -8.92857,1.07142 -10.35714,6.78572 -1.78572,7.5 -2.14286,7.85714 -7.14285,7.5 -6.42857,7.14286 z"
       id="path3755"
       transform="translate(0,308.2677)" />
    <path
       style="fill:#6b5753;fill-opacity:1;stroke:#000000;stroke-width:1px;stroke-linecap:butt;stroke-linejoin:miter;stroke-opacity:1"
       d="m 718.57143,289.09448 -2.67857,5 c 0,0 0,2.5 0.53571,4.28572 0.53572,1.78571 0.71429,5.17857 0.71429,5.17857 l 2.32143,3.92857 -5.71429,2.32143 -6.60714,-0.53572 -4.10714,-4.10714 -2.85715,-3.92857 -0.71428,-6.07143 2.14285,-3.57143 3.57143,-2.5 5.35715,-3.21428 3.03571,-0.35715 2.14286,0.71429 2.85714,2.85714 z"
       id="path3757"
       transform="translate(0,308.2677)" />
    <path
       style="fill:#c39b7c;fill-opacity:1;stroke:#000000;stroke-width:1px;stroke-linecap:butt;stroke-linejoin:miter;stroke-opacity:1"
       d="m 673.57143,432.66591 -44.28571,30.35714 -12.14286,21.42857 -7.5,18.57143 3.92857,15.71429 8.21429,15.71428 11.42857,10.71429 19.28571,13.57143 16.42857,6.78571 14.28572,-5 10,-10.35714 -9.28572,-12.5 -8.21428,-12.14286 0,-12.14285 3.92857,-23.57143 3.57143,-14.64286 2.5,-10.71429 3.21428,-24.64285 -2.14285,-6.42857 -13.21429,-0.71429 z"
       id="path3759"
       transform="translate(0,308.2677)" />
    <path
       style="fill:#31261f;fill-opacity:1;stroke:#000000;stroke-width:1px;stroke-linecap:butt;stroke-linejoin:miter;stroke-opacity:1"
       d="m 665.18545,446.35202 -5.33001,5.56792 -6.53928,6.04883 -5.3033,6.31346 -8.83884,7.3236 c 0,0 -3.78807,5.05077 -6.06091,6.81853 -2.27284,1.76777 -7.07107,5.05077 -7.07107,5.05077 l -3.283,1.26269 3.283,-7.82869 2.02031,-7.82868 3.28299,-4.54568 5.3033,-3.78808 6.06092,-3.28299 8.33376,-4.79823 6.31345,-3.28299 7.82868,-3.03046 z"
       id="path3761"
       transform="translate(0,308.2677)"
       sodipodi:nodetypes="cccccscccccccccc" />
    <path
       style="fill:#2c211c;fill-opacity:1;stroke:#000000;stroke-width:1px;stroke-linecap:butt;stroke-linejoin:miter;stroke-opacity:1"
       d="m 345.35714,434.80877 20,11.42857 8.21429,8.57143 10,6.78571 11.78571,6.07143 7.14286,7.5 6.42857,8.92857 -1.42857,-13.92857 3.57143,-12.85714 4.28571,-7.14286 1.78572,-7.14286 c 0,0 -7.14286,-4.28571 -7.5,-7.14285 -0.35715,-2.85715 -8.21429,-6.07143 -8.21429,-6.07143 l -12.14286,1.42857 -11.07142,6.07143 -14.64286,0.35714 -8.57143,-6.07143 -7.85714,-6.78571 -5.71429,1.07143 0,6.42857 3.92857,2.5 z"
       id="path3763"
       transform="translate(0,308.2677)" />
    <path
       style="fill:#cb3638;fill-opacity:1;stroke:#000000;stroke-width:1px;stroke-linecap:butt;stroke-linejoin:miter;stroke-opacity:1"
       d="m 562.65497,74.363344 11.86929,23.233509 8.08122,19.192897 8.83884,17.17259 2.27284,18.68783 1.51523,15.15228 0.50507,11.8693 0.75762,14.39467 3.28299,-11.36422 0,-10.85914 0.25254,-13.38452 -2.27284,-11.61675 -4.04061,-14.64721 -2.27284,-10.85914 -6.06092,-9.34391 -11.36422,-22.22336 -13.38452,-26.263966 2.02031,10.85914 z"
       id="path3767"
       transform="translate(0,308.2677)" />
    <path
       style="fill:#c86a28;fill-opacity:1;stroke:#000000;stroke-width:1px;stroke-linecap:butt;stroke-linejoin:miter;stroke-opacity:1"
       d="m 598.92857,219.09448 25.71429,-4.28571 11.78571,-13.57143 8.21429,-12.5 2.14286,-18.57143 -7.14286,-11.78571 -21.78572,-17.14286 -14.64285,-16.78572 -7.5,-12.14285 1.42857,12.5 3.21428,5.71428 2.5,11.07143 2.14286,16.42857 1.07143,11.07143 0.71429,16.78572 -3.92858,14.64285 -3.92857,11.07143 -6.42857,8.57143 6.42857,-1.07143 z"
       id="path3769"
       transform="translate(0,308.2677)" />
    <path
       style="fill:#d7c9c3;fill-opacity:0.49803922;stroke:#000000;stroke-width:1px;stroke-linecap:butt;stroke-linejoin:miter;stroke-opacity:1"
       d="m 608.21429,168.02305 6.07143,12.5 3.92857,5.35715 7.5,-0.71429 8.21428,-8.21429 2.85715,-8.92857 -1.78572,-7.85714 -9.64286,-7.85714 -9.28571,-7.5 -7.14286,-8.21429 -4.64285,-7.14286 -5,-8.25893 -1.42858,-2.1875 0.44643,2.99108 0.44643,2.67857 1.33929,2.8125 1.47321,1.29464 1.65179,4.6875 0,4.375 3.39285,15.53572 1.60715,14.64285 z"
       id="path3771"
       transform="translate(0,308.2677)" />
  </g>
  <g
     inkscape:groupmode="layer"
     id="layer2"
     inkscape:label="dRAW"
     style="display:none"
     sodipodi:insensitive="true">
    <image
       transform="translate(0,-308.2677)"
       y="308.21933"
       x="67.857147"
       id="image2886"
       height="727.80359"
       width="916.91791"
       xlink:href="file:///home/ciaran/python/pygame/ldnpydojo/wombat-southern-hairy-nosed.jpg"
       style="opacity:0.704918" />
  </g>
</svg>
