<?xml version="1.0" encoding="UTF-8" standalone="no"?>
<!-- Created with Inkscape (http://www.inkscape.org/) -->

<svg
   xmlns:dc="http://purl.org/dc/elements/1.1/"
   xmlns:cc="http://creativecommons.org/ns#"
   xmlns:rdf="http://www.w3.org/1999/02/22-rdf-syntax-ns#"
   xmlns:svg="http://www.w3.org/2000/svg"
   xmlns="http://www.w3.org/2000/svg"
   xmlns:xlink="http://www.w3.org/1999/xlink"
   xmlns:sodipodi="http://sodipodi.sourceforge.net/DTD/sodipodi-0.dtd"
   xmlns:inkscape="http://www.inkscape.org/namespaces/inkscape"
   id="svg2"
   version="1.1"
   inkscape:version="0.47pre4 r22446"
   width="1200"
   height="1734"
   sodipodi:docname="Prunus_cerasus_wisnia.JPG">
  <metadata
     id="metadata8">
    <rdf:RDF>
      <cc:Work
         rdf:about="">
        <dc:format>image/svg+xml</dc:format>
        <dc:type
           rdf:resource="http://purl.org/dc/dcmitype/StillImage" />
        <dc:title></dc:title>
      </cc:Work>
    </rdf:RDF>
  </metadata>
  <defs
     id="defs6">
    <inkscape:perspective
       sodipodi:type="inkscape:persp3d"
       inkscape:vp_x="0 : 0.5 : 1"
       inkscape:vp_y="0 : 1000 : 0"
       inkscape:vp_z="1 : 0.5 : 1"
       inkscape:persp3d-origin="0.5 : 0.33333333 : 1"
       id="perspective10" />
    <inkscape:perspective
       id="perspective2832"
       inkscape:persp3d-origin="0.5 : 0.33333333 : 1"
       inkscape:vp_z="1 : 0.5 : 1"
       inkscape:vp_y="0 : 1000 : 0"
       inkscape:vp_x="0 : 0.5 : 1"
       sodipodi:type="inkscape:persp3d" />
    <inkscape:perspective
       id="perspective2857"
       inkscape:persp3d-origin="0.5 : 0.33333333 : 1"
       inkscape:vp_z="1 : 0.5 : 1"
       inkscape:vp_y="0 : 1000 : 0"
       inkscape:vp_x="0 : 0.5 : 1"
       sodipodi:type="inkscape:persp3d" />
  </defs>
  <sodipodi:namedview
     pagecolor="#ffffff"
     bordercolor="#666666"
     borderopacity="1"
     objecttolerance="10"
     gridtolerance="10"
     guidetolerance="10"
     inkscape:pageopacity="0"
     inkscape:pageshadow="2"
     inkscape:window-width="1133"
     inkscape:window-height="753"
     id="namedview4"
     showgrid="false"
     inkscape:zoom="0.28027682"
     inkscape:cx="74.788955"
     inkscape:cy="936.29309"
     inkscape:window-x="0"
     inkscape:window-y="25"
     inkscape:window-maximized="0"
     inkscape:current-layer="layer2" />
  <g
     inkscape:groupmode="layer"
     id="layer1"
     inkscape:label="Layer"
     style="display:none">
    <image
       xlink:href="file:///home/ciaran/Desktop/Pygame-Working/Prunus_cerasus_wisnia.JPG"
       width="1200"
       height="1734"
       id="image12"
       x="52.925926"
       y="-32.111126" />
  </g>
  <g
     inkscape:groupmode="layer"
     id="layer2"
     inkscape:label="Layer#1"
     style="display:inline">
    <path
       style="fill:#e82531;fill-opacity:1;stroke:#000000;stroke-width:9;stroke-linecap:butt;stroke-linejoin:miter;stroke-opacity:1;stroke-miterlimit:4;stroke-dasharray:none"
       d="m 574.4321,1109.6172 -76.70988,14.2716 -57.08642,24.9754 -37.46296,28.5432 -40.58487,48.1667 -28.9892,70.4661 -3.5679,88.3055 26.75925,94.5494 28.54321,51.7346 23.19136,33.8951 42.81482,39.2469 55.30247,33.895 66.00617,17.8395 85.62963,7.1358 85.62963,-19.6234 69.57407,-30.3272 66.00618,-73.142 37.46296,-60.6543 21.40736,-60.6543 1.784,-112.3889 -33.89506,-105.2531 -62.43828,-51.7346 c 0,0 -42.81481,-24.9754 -48.16666,-32.1112 -5.35185,-7.1358 -71.35803,-21.4074 -71.35803,-21.4074 l -55.30247,-7.1358 -94.54938,21.4074 z"
       id="path2818"
       sodipodi:nodetypes="ccccccccccccccccccccccsccc" />
    <path
       style="fill:#668d32;fill-opacity:1;stroke:#000000;stroke-width:9;stroke-linecap:butt;stroke-linejoin:miter;stroke-opacity:1;stroke-miterlimit:4;stroke-dasharray:none"
       d="m 599.40741,1175.6234 c 0,0 19.03727,19.2111 33.22608,20.9615 11.81827,1.4579 43.4838,-10.2578 43.4838,-10.2578 l -8.91976,-89.1975 -16.05555,-94.5494 -3.5679,-132.0123 1.78395,-78.49383 3.5679,-235.48148 0,-107.03704 -5.35185,-103.46913 -5.35186,-80.27778 5.35186,-35.67901 -1.78396,-30.32716 c 0,0 -20.87946,-12.60443 -30.77314,-10.25771 -11.64965,2.76321 -26.31327,26.31326 -26.31327,26.31326 l 12.48765,41.03087 10.7037,87.41358 3.5679,76.70987 3.56791,69.57408 3.5679,87.41358 -3.5679,96.33333 -3.56791,148.0679 -7.1358,167.69141 8.91976,66.00606 -7.13581,66.0062 -10.7037,53.5185 z"
       id="path2820"
       sodipodi:nodetypes="cscccccccccccscccccccccccc" />
  </g>
</svg>
